<svg xmlns="http://www.w3.org/2000/svg" xmlns:xlink="http://www.w3.org/1999/xlink" width="238.962" height="310.817" viewBox="0 0 238.962 310.817">
  <defs>
    <filter id="Ellipse_1" x="0" y="175.899" width="238.962" height="134.917" filterUnits="userSpaceOnUse">
      <feOffset dx="2" input="SourceAlpha"/>
      <feGaussianBlur stdDeviation="1.5" result="blur"/>
      <feFlood flood-opacity="0.161"/>
      <feComposite operator="in" in2="blur"/>
      <feComposite in="SourceGraphic"/>
    </filter>
    <filter id="Ellipse_1-2" x="0" y="134.268" width="238.962" height="134.917" filterUnits="userSpaceOnUse">
      <feOffset dx="2" input="SourceAlpha"/>
      <feGaussianBlur stdDeviation="1.5" result="blur-2"/>
      <feFlood flood-opacity="0.161"/>
      <feComposite operator="in" in2="blur-2"/>
      <feComposite in="SourceGraphic"/>
    </filter>
    <filter id="Ellipse_1-3" x="0" y="92.637" width="238.962" height="134.917" filterUnits="userSpaceOnUse">
      <feOffset dx="2" input="SourceAlpha"/>
      <feGaussianBlur stdDeviation="1.5" result="blur-3"/>
      <feFlood flood-opacity="0.161"/>
      <feComposite operator="in" in2="blur-3"/>
      <feComposite in="SourceGraphic"/>
    </filter>
    <filter id="Ellipse_1-4" x="0" y="51.006" width="238.962" height="134.917" filterUnits="userSpaceOnUse">
      <feOffset dx="2" input="SourceAlpha"/>
      <feGaussianBlur stdDeviation="1.5" result="blur-4"/>
      <feFlood flood-opacity="0.161"/>
      <feComposite operator="in" in2="blur-4"/>
      <feComposite in="SourceGraphic"/>
    </filter>
    <filter id="Ellipse_1-5" x="0" y="14.002" width="238.962" height="134.917" filterUnits="userSpaceOnUse">
      <feOffset dx="2" input="SourceAlpha"/>
      <feGaussianBlur stdDeviation="1.5" result="blur-5"/>
      <feFlood flood-opacity="0.161"/>
      <feComposite operator="in" in2="blur-5"/>
      <feComposite in="SourceGraphic"/>
    </filter>
  </defs>
  <g id="Group_123" data-name="Group 123" transform="translate(-11811.202 -3476.135)">
    <g id="Group_103" data-name="Group 103" transform="translate(11816 3638.898)">
      <g id="Group_100" data-name="Group 100" transform="translate(2.06 17.399) scale(1 0.559)">
        <g transform="matrix(1, 0, 0, 1.79, -6.86, -322.18)" filter="url(#Ellipse_1)">
          <circle id="Ellipse_1-6" data-name="Ellipse 1" cx="94.825" cy="94.825" r="94.825" transform="translate(6.86 180.16) scale(1 0.56)" fill="#eaa82b"/>
        </g>
        <text id="PT" transform="translate(91.631 118.257)" fill="#ffd564" stroke="#eaa82b" stroke-width="1" font-size="78" font-family="Roboto-Black, Roboto" font-weight="800"><tspan x="-49.969" y="0">PT</tspan></text>
      </g>
      <rect id="Rectangle_58" data-name="Rectangle 58" width="189.651" height="23.128" transform="translate(2.313 49.609)" fill="#eaa82b"/>
      <g id="Group_101" data-name="Group 101" transform="translate(2.06 -1.104) scale(1 0.559)">
        <g id="Ellipse_1-7" data-name="Ellipse 1" transform="translate(0 0)" fill="#fac432" stroke="#eaa82b" stroke-width="1">
          <circle cx="94.825" cy="94.825" r="94.825" stroke="none"/>
          <circle cx="94.825" cy="94.825" r="94.325" fill="none"/>
        </g>
        <g id="Ellipse_5" data-name="Ellipse 5" transform="translate(4.626 9.251)" fill="none" stroke="#ffd564" stroke-width="4">
          <circle cx="87.887" cy="87.887" r="87.887" stroke="none"/>
          <circle cx="87.887" cy="87.887" r="85.887" fill="none"/>
        </g>
        <text id="PT-2" data-name="PT" transform="translate(91.631 118.257)" fill="#ffd564" stroke="#eaa82b" stroke-width="1" font-size="78" font-family="Roboto-Black, Roboto" font-weight="800"><tspan x="-49.969" y="0">PT</tspan></text>
      </g>
    </g>
    <g id="Group_104" data-name="Group 104" transform="translate(11816 3597.266)">
      <g id="Group_100-2" data-name="Group 100" transform="translate(2.06 17.399) scale(1 0.559)">
        <g transform="matrix(1, 0, 0, 1.79, -6.86, -247.73)" filter="url(#Ellipse_1-2)">
          <circle id="Ellipse_1-8" data-name="Ellipse 1" cx="94.825" cy="94.825" r="94.825" transform="translate(6.86 138.53) scale(1 0.56)" fill="#eaa82b"/>
        </g>
        <text id="PT-3" data-name="PT" transform="translate(91.631 118.257)" fill="#ffd564" stroke="#eaa82b" stroke-width="1" font-size="78" font-family="Roboto-Black, Roboto" font-weight="800"><tspan x="-49.969" y="0">PT</tspan></text>
      </g>
      <rect id="Rectangle_58-2" data-name="Rectangle 58" width="189.651" height="23.128" transform="translate(2.313 49.609)" fill="#eaa82b"/>
      <g id="Group_101-2" data-name="Group 101" transform="translate(2.06 -1.104) scale(1 0.559)">
        <g id="Ellipse_1-9" data-name="Ellipse 1" transform="translate(0 0)" fill="#fac432" stroke="#eaa82b" stroke-width="1">
          <circle cx="94.825" cy="94.825" r="94.825" stroke="none"/>
          <circle cx="94.825" cy="94.825" r="94.325" fill="none"/>
        </g>
        <g id="Ellipse_5-2" data-name="Ellipse 5" transform="translate(4.626 9.251)" fill="none" stroke="#ffd564" stroke-width="4">
          <circle cx="87.887" cy="87.887" r="87.887" stroke="none"/>
          <circle cx="87.887" cy="87.887" r="85.887" fill="none"/>
        </g>
        <text id="PT-4" data-name="PT" transform="translate(91.631 118.257)" fill="#ffd564" stroke="#eaa82b" stroke-width="1" font-size="78" font-family="Roboto-Black, Roboto" font-weight="800"><tspan x="-49.969" y="0">PT</tspan></text>
      </g>
    </g>
    <g id="Group_105" data-name="Group 105" transform="translate(11816 3555.635)">
      <g id="Group_100-3" data-name="Group 100" transform="translate(2.06 17.399) scale(1 0.559)">
        <g transform="matrix(1, 0, 0, 1.79, -6.86, -173.28)" filter="url(#Ellipse_1-3)">
          <circle id="Ellipse_1-10" data-name="Ellipse 1" cx="94.825" cy="94.825" r="94.825" transform="translate(6.86 96.9) scale(1 0.56)" fill="#eaa82b"/>
        </g>
        <text id="PT-5" data-name="PT" transform="translate(91.631 118.257)" fill="#ffd564" stroke="#eaa82b" stroke-width="1" font-size="78" font-family="Roboto-Black, Roboto" font-weight="800"><tspan x="-49.969" y="0">PT</tspan></text>
      </g>
      <rect id="Rectangle_58-3" data-name="Rectangle 58" width="189.651" height="23.128" transform="translate(2.313 49.609)" fill="#eaa82b"/>
      <g id="Group_101-3" data-name="Group 101" transform="translate(2.06 -1.104) scale(1 0.559)">
        <g id="Ellipse_1-11" data-name="Ellipse 1" transform="translate(0 0)" fill="#fac432" stroke="#eaa82b" stroke-width="1">
          <circle cx="94.825" cy="94.825" r="94.825" stroke="none"/>
          <circle cx="94.825" cy="94.825" r="94.325" fill="none"/>
        </g>
        <g id="Ellipse_5-3" data-name="Ellipse 5" transform="translate(4.626 9.251)" fill="none" stroke="#ffd564" stroke-width="4">
          <circle cx="87.887" cy="87.887" r="87.887" stroke="none"/>
          <circle cx="87.887" cy="87.887" r="85.887" fill="none"/>
        </g>
        <text id="PT-6" data-name="PT" transform="translate(91.631 118.257)" fill="#ffd564" stroke="#eaa82b" stroke-width="1" font-size="78" font-family="Roboto-Black, Roboto" font-weight="800"><tspan x="-49.969" y="0">PT</tspan></text>
      </g>
    </g>
    <g id="Group_106" data-name="Group 106" transform="translate(11816 3514.004)">
      <g id="Group_100-4" data-name="Group 100" transform="translate(2.06 17.399) scale(1 0.559)">
        <g transform="matrix(1, 0, 0, 1.79, -6.86, -98.83)" filter="url(#Ellipse_1-4)">
          <circle id="Ellipse_1-12" data-name="Ellipse 1" cx="94.825" cy="94.825" r="94.825" transform="translate(6.86 55.27) scale(1 0.56)" fill="#eaa82b"/>
        </g>
        <text id="PT-7" data-name="PT" transform="translate(91.631 118.257)" fill="#ffd564" stroke="#eaa82b" stroke-width="1" font-size="78" font-family="Roboto-Black, Roboto" font-weight="800"><tspan x="-49.969" y="0">PT</tspan></text>
      </g>
      <rect id="Rectangle_58-4" data-name="Rectangle 58" width="189.651" height="23.128" transform="translate(2.313 49.609)" fill="#eaa82b"/>
      <g id="Group_101-4" data-name="Group 101" transform="translate(2.06 -1.104) scale(1 0.559)">
        <g id="Ellipse_1-13" data-name="Ellipse 1" transform="translate(0 0)" fill="#fac432" stroke="#eaa82b" stroke-width="1">
          <circle cx="94.825" cy="94.825" r="94.825" stroke="none"/>
          <circle cx="94.825" cy="94.825" r="94.325" fill="none"/>
        </g>
        <g id="Ellipse_5-4" data-name="Ellipse 5" transform="translate(4.626 9.251)" fill="none" stroke="#ffd564" stroke-width="4">
          <circle cx="87.887" cy="87.887" r="87.887" stroke="none"/>
          <circle cx="87.887" cy="87.887" r="85.887" fill="none"/>
        </g>
        <text id="PT-8" data-name="PT" transform="translate(91.631 118.257)" fill="#ffd564" stroke="#eaa82b" stroke-width="1" font-size="78" font-family="Roboto-Black, Roboto" font-weight="800"><tspan x="-49.969" y="0">PT</tspan></text>
      </g>
    </g>
    <g id="Group_107" data-name="Group 107" transform="translate(11816 3477)">
      <g id="Group_100-5" data-name="Group 100" transform="translate(2.06 17.399) scale(1 0.559)">
        <g transform="matrix(1, 0, 0, 1.79, -6.86, -32.66)" filter="url(#Ellipse_1-5)">
          <circle id="Ellipse_1-14" data-name="Ellipse 1" cx="94.825" cy="94.825" r="94.825" transform="translate(6.86 18.26) scale(1 0.56)" fill="#eaa82b"/>
        </g>
        <text id="PT-9" data-name="PT" transform="translate(91.631 118.257)" fill="#ffd564" stroke="#eaa82b" stroke-width="1" font-size="78" font-family="Roboto-Black, Roboto" font-weight="800"><tspan x="-49.969" y="0">PT</tspan></text>
      </g>
      <rect id="Rectangle_58-5" data-name="Rectangle 58" width="189.651" height="23.128" transform="translate(2.313 49.609)" fill="#eaa82b"/>
      <g id="Group_101-5" data-name="Group 101" transform="translate(2.06 -1.104) scale(1 0.559)">
        <g id="Ellipse_1-15" data-name="Ellipse 1" transform="translate(0 0)" fill="#fac432" stroke="#eaa82b" stroke-width="1">
          <circle cx="94.825" cy="94.825" r="94.825" stroke="none"/>
          <circle cx="94.825" cy="94.825" r="94.325" fill="none"/>
        </g>
        <g id="Ellipse_5-5" data-name="Ellipse 5" transform="translate(4.626 9.251)" fill="none" stroke="#ffd564" stroke-width="4">
          <circle cx="87.887" cy="87.887" r="87.887" stroke="none"/>
          <circle cx="87.887" cy="87.887" r="85.887" fill="none"/>
        </g>
      </g>
    </g>
  </g>
</svg>
