<svg id="Group_116" data-name="Group 116" xmlns="http://www.w3.org/2000/svg" width="531.672" height="380.663" viewBox="0 0 531.672 380.663">
  <path id="Path_1" data-name="Path 1" d="M528.459,81.022c2.668-6.318,7.722-15.584-5.475-29.343-10.811-8.985-14.461-27.939-16.146-34.257-2.668,1.966-10.249,9.547-10.53,13.9-23.587-8.283-26.816,15.725-26.816,15.725C382.726-35.087,208.07,6.752,129.868,48.45,97.3,13.21,62.477,10.262,62.477,10.262L77.5,74.845a9.443,9.443,0,0,0-1.544.983C49.841,92.816,38.75,98.432,42.4,132.689,48.578,191.095,0,204.994,0,204.994c3.089,7.581,8.985,86.2,8.985,86.2s39.171-.421,41.417-1.264c.7,5.9,15.444,20.919,28.5,23.447s95.19-3.931,95.19,37.346c0,13.619.281,29.764.281,29.764H292.309l-.562-18.673c11.513,2.387,29.2,3.229,42.541-.562l.281,18.673,115.829.7-.421-38.89C532.39,305.8,543.9,173.264,502.766,93.658,520.035,101.52,528.459,81.022,528.459,81.022ZM72.165,177.476c-3.51,0-6.318-9.266-6.318-20.639S68.655,136.2,72.165,136.2s6.318,9.266,6.318,20.639S75.675,177.476,72.165,177.476Z" transform="translate(0 0.031)" fill="#a1e667"/>
  <rect id="Rectangle_51" data-name="Rectangle 51" width="138.465" height="32.856" rx="16.428" transform="translate(237.033 53.314)" fill="#8fbe67"/>
</svg>
